<?xml version="1.0" standalone="no"?>
<!DOCTYPE svg PUBLIC "-//W3C//DTD SVG 20010904//EN"
 "http://www.w3.org/TR/2001/REC-SVG-20010904/DTD/svg10.dtd">
<svg version="1.0" xmlns="http://www.w3.org/2000/svg"
 width="177.000000pt" height="50.000000pt" viewBox="0 0 177.000000 50.000000"
 preserveAspectRatio="xMidYMid meet">

<g transform="translate(0.000000,50.000000) scale(0.100000,-0.100000)"
fill="#000000" stroke="none">
<path d="M140 400 c0 -5 12 -10 28 -10 15 0 45 -9 68 -19 39 -18 41 -18 75 0
19 10 46 18 61 19 15 0 30 5 33 10 4 7 -8 8 -37 4 -24 -4 -45 -11 -46 -16 -2
-4 -8 -6 -13 -2 -5 3 -9 0 -9 -6 0 -6 -4 -8 -10 -5 -5 3 -10 2 -10 -4 0 -6
-15 -2 -32 8 -40 23 -108 36 -108 21z"/>
<path d="M154 330 c3 -22 9 -58 12 -80 6 -40 15 -46 48 -34 12 5 16 22 18 68
l2 61 6 -80 6 -80 2 77 c2 76 2 78 -28 93 -16 8 -39 15 -50 15 -20 0 -21 -4
-16 -40z"/>
<path d="M323 358 c-21 -10 -23 -18 -23 -98 0 -71 -3 -89 -16 -94 -13 -5 -10
-13 17 -47 l32 -41 -21 -21 -22 -21 -45 44 c-25 24 -45 49 -45 54 0 6 19 -9
43 -32 42 -41 67 -53 67 -32 0 6 -18 35 -40 64 -36 48 -45 54 -87 60 -84 11
-83 12 -83 -44 0 -47 1 -50 26 -50 16 0 51 -18 86 -45 33 -25 67 -45 75 -45
19 0 153 80 153 91 0 17 -28 21 -52 8 -21 -11 -22 -11 -10 4 11 13 10 19 -4
35 -9 12 -24 18 -35 15 -11 -3 -20 0 -20 6 -1 6 -2 17 -3 24 -2 13 13 27 29
27 6 0 3 -5 -5 -10 -17 -11 -10 -13 13 -4 9 3 13 14 10 27 -4 18 -3 20 7 7 9
-12 10 -2 6 45 -3 39 -2 53 4 40 7 -17 9 -15 9 13 1 27 -3 32 -21 31 -13 0
-33 -5 -45 -11z"/>
<path d="M1093 315 c0 -33 2 -45 4 -27 2 18 2 45 0 60 -2 15 -4 0 -4 -33z"/>
<path d="M1492 345 c0 -16 2 -22 5 -12 2 9 2 23 0 30 -3 6 -5 -1 -5 -18z"/>
<path d="M1625 335 c0 -13 3 -21 8 -18 4 2 7 10 7 18 0 8 -3 16 -7 18 -5 3 -8
-5 -8 -18z"/>
<path d="M683 295 c0 -22 2 -30 4 -17 2 12 2 30 0 40 -3 9 -5 -1 -4 -23z"/>
<path d="M753 295 c0 -22 2 -30 4 -17 2 12 2 30 0 40 -3 9 -5 -1 -4 -23z"/>
<path d="M1281 314 c0 -11 3 -14 6 -6 3 7 2 16 -1 19 -3 4 -6 -2 -5 -13z"/>
<path d="M1346 313 c-6 -14 -5 -15 5 -6 7 7 10 15 7 18 -3 3 -9 -2 -12 -12z"/>
<path d="M1671 315 c-1 -22 16 -45 33 -45 5 0 3 6 -6 13 -9 6 -18 21 -21 32
-5 20 -5 20 -6 0z"/>
<path d="M1492 280 c0 -14 2 -19 5 -12 2 6 2 18 0 25 -3 6 -5 1 -5 -13z"/>
<path d="M268 235 c-1 -30 0 -55 5 -55 4 0 7 25 7 55 0 71 -7 71 -12 0z"/>
<path d="M1281 274 c0 -11 3 -14 6 -6 3 7 2 16 -1 19 -3 4 -6 -2 -5 -13z"/>
<path d="M1600 284 c0 -6 7 -19 16 -30 14 -18 14 -18 3 6 -14 31 -19 36 -19
24z"/>
<path d="M1330 275 c0 -5 5 -17 10 -25 5 -8 10 -10 10 -5 0 6 -5 17 -10 25 -5
8 -10 11 -10 5z"/>
<path d="M1209 253 c-13 -16 -12 -17 4 -4 16 13 21 21 13 21 -2 0 -10 -8 -17
-17z"/>
<path d="M1706 235 c-11 -8 -15 -15 -9 -15 6 0 16 7 23 15 16 19 11 19 -14 0z"/>
<path d="M747 193 c-4 -3 -7 -22 -7 -40 0 -30 3 -34 22 -31 12 2 23 9 24 16 1
7 0 8 -3 2 -2 -5 -11 -10 -19 -10 -18 0 -19 56 -1 63 6 3 7 6 1 6 -6 1 -14 -2
-17 -6z"/>
<path d="M896 192 c-2 -4 4 -8 14 -8 10 0 16 4 14 8 -3 4 -9 8 -14 8 -5 0 -11
-4 -14 -8z"/>
<path d="M1117 193 c-3 -5 6 -9 20 -10 19 -1 22 1 12 8 -17 11 -26 11 -32 2z"/>
<path d="M1275 190 c-3 -6 1 -7 9 -4 18 7 21 14 7 14 -6 0 -13 -4 -16 -10z"/>
<path d="M1420 190 c8 -5 20 -10 25 -10 6 0 3 5 -5 10 -8 5 -19 10 -25 10 -5
0 -3 -5 5 -10z"/>
<path d="M1488 193 c7 -3 16 -2 19 1 4 3 -2 6 -13 5 -11 0 -14 -3 -6 -6z"/>
<path d="M1676 192 c-2 -4 4 -8 14 -8 10 0 16 4 14 8 -3 4 -9 8 -14 8 -5 0
-11 -4 -14 -8z"/>
<path d="M650 177 c0 -8 -8 -18 -17 -20 -17 -4 -17 -5 0 -6 18 -1 35 25 23 36
-3 4 -6 -1 -6 -10z"/>
<path d="M711 161 c-1 -27 -4 -32 -18 -26 -15 5 -16 4 -5 -6 18 -19 35 2 29
37 -4 28 -4 27 -6 -5z"/>
<path d="M776 173 c-6 -14 -5 -15 5 -6 7 7 10 15 7 18 -3 3 -9 -2 -12 -12z"/>
<path d="M863 155 c0 -22 2 -30 4 -17 2 12 2 30 0 40 -3 9 -5 -1 -4 -23z"/>
<path d="M1040 180 c0 -5 5 -10 11 -10 5 0 7 5 4 10 -3 6 -8 10 -11 10 -2 0
-4 -4 -4 -10z"/>
<path d="M1243 155 c0 -22 2 -30 4 -17 2 12 2 30 0 40 -3 9 -5 -1 -4 -23z"/>
<path d="M1600 180 c0 -5 5 -10 11 -10 5 0 7 5 4 10 -3 6 -8 10 -11 10 -2 0
-4 -4 -4 -10z"/>
<path d="M1418 165 c28 -22 29 -39 1 -32 -16 4 -19 3 -11 -5 13 -13 45 -2 40
14 -2 6 -15 18 -29 26 l-24 15 23 -18z"/>
<path d="M903 159 c9 -5 17 -15 17 -21 0 -6 -8 -7 -17 -3 -14 5 -15 3 -6 -6 6
-6 16 -8 22 -5 16 10 13 33 -5 40 -24 9 -31 7 -11 -5z"/>
<path d="M1066 147 c3 -10 9 -15 12 -12 3 3 0 11 -7 18 -10 9 -11 8 -5 -6z"/>
<path d="M1147 143 c5 -13 2 -15 -17 -10 -16 4 -20 3 -12 -5 14 -14 42 -3 42
17 0 8 -4 15 -10 15 -5 0 -7 -7 -3 -17z"/>
<path d="M1201 134 c0 -11 3 -14 6 -6 3 7 2 16 -1 19 -3 4 -6 -2 -5 -13z"/>
<path d="M1310 141 c0 -8 -8 -11 -20 -8 -11 3 -18 1 -14 -4 3 -5 11 -9 19 -9
16 0 30 18 21 27 -3 4 -6 1 -6 -6z"/>
<path d="M1601 134 c0 -11 3 -14 6 -6 3 7 2 16 -1 19 -3 4 -6 -2 -5 -13z"/>
<path d="M1630 141 c0 -5 5 -13 10 -16 6 -3 10 -2 10 4 0 5 -4 13 -10 16 -5 3
-10 2 -10 -4z"/>
<path d="M810 129 c0 -5 9 -9 20 -9 11 0 20 2 20 4 0 2 -9 6 -20 9 -11 3 -20
1 -20 -4z"/>
<path d="M1350 126 c7 -7 13 -7 20 0 6 6 3 10 -10 10 -13 0 -16 -4 -10 -10z"/>
<path d="M1680 126 c7 -7 13 -7 20 0 6 6 3 10 -10 10 -13 0 -16 -4 -10 -10z"/>
<path d="M1478 123 c6 -2 18 -2 25 0 6 3 1 5 -13 5 -14 0 -19 -2 -12 -5z"/>
</g>
</svg>
